<svg version="1.2" baseProfile="tiny-ps" xmlns="http://www.w3.org/2000/svg" viewBox="0 0 1257 1606" width="1257" height="1606">
	<title>palantir-svg copy-svg</title>
	<style>
		tspan { white-space:pre }
		.shp0 { fill: #ffffff } 
	</style>
	<path id="Layer" fill-rule="evenodd" class="shp0" d="M1230.03 611.47C1230.03 947.54 958.89 1222.97 628.25 1222.97C297.61 1222.97 26.47 947.46 26.47 611.47C26.47 275.51 297.61 0 628.25 0C958.89 0 1230.03 275.51 1230.03 611.47ZM1044.89 611.47C1044.89 376.3 859.67 188.13 628.25 188.13C396.74 188.13 211.61 376.3 211.61 611.47C211.61 846.67 396.74 1034.84 628.25 1034.84C853.11 1034.84 1038.25 846.67 1044.89 611.47ZM1163.85 1169.26L1256.5 1337.25L628.25 1606L0 1337.25L92.57 1169.26L628.25 1404.38L1163.85 1169.26Z" />
</svg>