<?xml version="1.0" encoding="UTF-8"?><svg width="139" height="115" viewBox="0 0 81.2769921875 67.36" xmlns="http://www.w3.org/2000/svg" id="a"><defs xmlns="http://www.w3.org/2000/svg"><style>.b{fill:#0072bc;}</style></defs><g xmlns="http://www.w3.org/2000/svg"><path class="b" d="m42.99,47.81c.83,0,.72-.47.72-1.36v-4.3c0-.89-.08-1.17.42-1.17,1.77,0,2.25-.16,2.25-1.74v-15.97c0-4.35-3.07-3.63-3.93-5.22-1.23-2.15,2.3-2.15,1.01-6.8-.33-1.06-1.15-1.71-2.74-1.71s-2.42.65-2.75,1.71c-1.28,4.65,2.25,4.65,1.02,6.8-.87,1.59-3.93.87-3.93,5.22v15.97c0,1.57.48,1.74,2.25,1.74.5,0,.42.28.42,1.17v4.3c0,.88-.11,1.36.73,1.36h4.53"/><path class="b" d="m29.01,13.17c-1.57,1.67-4.05,5.57-2.43,8.81,3.29,1.27,3.04-10.43,7.15-10.23,2.03,1.88-.61,7.4-1.42,9.83-1.01,3-1.82,9.27-3.75,12.31-1.62,2.54-.4,10.49-.91,13.23-1.36,1.37-5.07.4-6.64.15,0-3.14-.41-5.62-.91-10.64-.05-1.01-1.12-16.51-.25-18.39,1.77-3.9,11.45-11.35,12.77-12.77,1.16-1.27,5.26-5.47,6.83-5.47,1.11.76.45,2.53.2,3.24-1.57,3.9-8.36,7.75-10.64,9.93"/><path class="b" d="m52.62,13.17c1.52,1.67,4,5.57,2.43,8.81-3.34,1.27-3.09-10.43-7.2-10.23-1.97,1.88.66,7.4,1.47,9.83,1.01,3,1.83,9.27,3.74,12.31,1.58,2.54.4,10.49.86,13.23,1.42,1.37,5.07.4,6.69.15,0-3.14.36-5.62.86-10.64.1-1.01,1.16-16.51.3-18.39-1.77-3.9-11.45-11.35-12.76-12.77-1.21-1.27-5.27-5.47-6.84-5.47-1.16.76-.45,2.53-.2,3.24,1.57,3.9,8.36,7.75,10.64,9.93"/><path class="b" d="m14.94,7.92c-.86.81-2.8,1.37-4.11,3.14-.51-.96.81-3.29,2.39-4.66,1.16-.97,3.45-2.54,4.11-2.69.51,1.17-1.31,2.95-2.38,4.21"/><path class="b" d="m12.25,14.27c-1.47,1.36-3.04,1.93-5.08,4.42-.86-3-.66-5.64-.26-7.42.71-2.33,1.88-4.92,3.86-5.73-.41,1.32-1.07,3.15-1.22,5.64-.86,3.4-1.37,3.5-1.17,3.96.2,0,1.32-1.78,2.69-3.15,1.63-1.62,3.65-1.98,4.97-2.94-.2.66-1.36,2.74-3.8,5.23"/><path class="b" d="m5.09,28.33c-1.98-3.55-2.19-6.14-2.34-9.14.1-2.08,1.12-6.9,2.64-7.61-.46,4.36.72,4.77.25,8.37,0,.2-.51,3.96-.51,4.16.61-.1.05-3.45,7-8.27-1.52,2.64-.81,3.45-3.55,6.96-3.19,3.15-3.65,6.24-3.49,5.53"/><path class="b" d="m7.88,31.68c-1.48,2.13-1.22,3.2-1.58,4.21-3.51-2.03-7.46-10.1-5.99-14.11.92,3.04,2.18,3.7,3.1,6.24,1.57,3.81,1.32,4.97,2.33,5.84-.2-1.98.46-4.32,1.12-6.04.96-1.47,1.72-3.4,2.44-4.06.76,2.8.2,5.08-1.42,7.92"/><path class="b" d="m11.03,38.58c0,3.1-.56,4.47-.81,6.75-6.04-1.98-9.19-8.88-9.19-12.28,1.83,4.16,4.52,4.11,8.03,10,.3-2.24-.61-.56-.71-4.77.1-4.42,1.02-4.57,1.16-7.31,1.12,1.22,1.53,6.09,1.53,7.61"/><path class="b" d="m16.05,47.36c.46,2.28.66,4.98,1.02,6.96-3.45-1.27-4.32-.31-8.42-2.9-1.88-1.02-5.23-5.28-5.02-8.33,4.06,4.52,4.77,4.02,6.75,5.69,1.83,1.47,3.3,3.66,4.62,3.36.1-1.22-3-3.86-2.59-11.47.81.86,3.04,4.31,3.65,6.7"/><path class="b" d="m22.91,53.05c1.06,1.52.81,2.18,3.56,5.33-.67.3-4.57,1.32-7.17,1.43-1.72,0-7.81-1.63-9.84-5.79,3.5,1.88,3.55,1.42,8.22,2.44,3.35.76,5.74,1.83,6.65,1.73-.2-.46-2.79-1.52-4.57-3.76-1.78-2.39-1.37-5.08-2.95-7.06,1.07-.3,5.23,4.57,6.09,5.69"/><path class="b" d="m66.41,7.92c.81.81,2.79,1.37,4.06,3.14.56-.96-.81-3.29-2.39-4.66-1.11-.97-3.4-2.54-4.12-2.69-.51,1.17,1.32,2.95,2.44,4.21"/><path class="b" d="m69.1,14.27c1.42,1.36,3,1.93,5.02,4.42.87-3,.66-5.64.26-7.42-.66-2.33-1.88-4.92-3.86-5.73.46,1.32,1.07,3.15,1.22,5.64.86,3.4,1.37,3.5,1.17,3.96-.2,0-1.32-1.78-2.69-3.15-1.57-1.62-3.61-1.98-4.97-2.94.2.66,1.42,2.74,3.86,5.23"/><path class="b" d="m76.21,28.33c2.03-3.55,2.18-6.14,2.34-9.14-.11-2.08-1.12-6.9-2.59-7.61.4,4.36-.76,4.77-.26,8.37,0,.2.46,3.96.46,4.16-.56-.1-.05-3.45-6.96-8.27,1.47,2.64.76,3.45,3.51,6.96,3.25,3.15,3.65,6.24,3.5,5.53"/><path class="b" d="m73.46,31.68c1.43,2.13,1.17,3.2,1.53,4.21,3.51-2.03,7.51-10.1,5.99-14.11-.86,3.04-2.18,3.7-3.04,6.24-1.62,3.81-1.37,4.97-2.34,5.84.2-1.98-.51-4.32-1.17-6.04-.91-1.47-1.72-3.4-2.44-4.06-.71,2.8-.2,5.08,1.47,7.92"/><path class="b" d="m70.27,38.58c0,3.1.6,4.47.86,6.75,5.99-1.98,9.19-8.88,9.19-12.28-1.88,4.16-4.52,4.11-8.07,10-.31-2.24.6-.56.71-4.77-.1-4.42-1.01-4.57-1.17-7.31-1.11,1.22-1.52,6.09-1.52,7.61"/><path class="b" d="m65.24,47.36c-.46,2.28-.61,4.98-.96,6.96,3.4-1.27,4.26-.31,8.37-2.9,1.88-1.02,5.28-5.28,5.08-8.33-4.06,4.52-4.82,4.02-6.75,5.69-1.83,1.47-3.35,3.66-4.68,3.36-.1-1.22,2.99-3.86,2.64-11.47-.86.86-3.1,4.31-3.7,6.7"/><path class="b" d="m58.39,53.05c-1.02,1.52-.77,2.18-3.55,5.33.71.3,4.57,1.32,7.21,1.43,1.67,0,7.77-1.63,9.79-5.79-3.49,1.88-3.55,1.42-8.22,2.44-3.35.76-5.69,1.83-6.65,1.73.2-.46,2.83-1.52,4.57-3.76,1.77-2.39,1.37-5.08,2.99-7.06-1.11-.3-5.27,4.57-6.14,5.69"/><path class="b" d="m31.99,67.36l-1.02-.51s6.45-7.87,17.51-7.26c11.07.61,10.31,3.2,16.24,2.79.66-.05-.51.82-.51.82,0,0-5.79,2.23-12.95-.21-7.11-2.44-11.73-3.91-19.29,4.37"/><path class="b" d="m49.5,67.36l1.02-.51s-6.4-7.87-17.46-7.26c-11.12.61-10.36,3.2-16.29,2.79-.66-.05.5.82.5.82,0,0,5.78,2.23,12.94-.21,7.15-2.44,11.78-3.91,19.28,4.37"/></g><g xmlns="http://www.w3.org/2000/svg"><path class="b" d="m89.9,56.92v6.19h3.7v1.4h-5.37v-7.6h1.67Z"/><path class="b" d="m94.34,60.7c.02-.35.11-.65.27-.88.16-.23.35-.42.6-.56.24-.14.51-.24.81-.3.3-.06.6-.09.91-.09.28,0,.56.02.84.06.28.04.54.12.78.23.23.11.43.27.57.47.15.2.22.47.22.8v2.86c0,.25.01.49.04.71.03.23.08.4.15.51h-1.53c-.03-.09-.05-.17-.07-.26-.02-.09-.03-.18-.04-.27-.24.25-.52.42-.85.52-.33.1-.66.15-1,.15-.26,0-.51-.03-.73-.1-.23-.06-.43-.16-.6-.3-.17-.13-.3-.31-.4-.51-.1-.21-.14-.45-.14-.73,0-.31.05-.57.16-.77.11-.2.25-.36.43-.48.17-.12.37-.21.6-.27.22-.06.45-.11.68-.14.23-.04.45-.06.67-.09.22-.02.42-.05.59-.1.17-.04.3-.1.4-.19.1-.08.15-.2.14-.36,0-.16-.03-.29-.08-.39-.05-.1-.12-.17-.21-.22-.09-.05-.19-.09-.31-.11-.12-.02-.24-.03-.38-.03-.3,0-.53.06-.7.19-.17.13-.27.34-.3.64h-1.51Zm3.49,1.12c-.06.06-.14.1-.24.13-.1.03-.2.06-.31.08-.11.02-.23.04-.35.05-.12.01-.24.03-.36.05-.11.02-.23.05-.34.09-.11.04-.21.08-.29.14-.08.06-.15.14-.2.23-.05.09-.07.21-.07.35s.02.25.07.34c.05.09.12.16.2.22.09.05.18.09.3.11.11.02.23.03.35.03.3,0,.53-.05.69-.15.16-.1.28-.22.36-.36.08-.14.13-.28.14-.42.02-.14.03-.26.03-.34v-.56Z"/><path class="b" d="m107.2,56.92l2.84,7.6h-1.73l-.57-1.69h-2.84l-.6,1.69h-1.68l2.87-7.6h1.71Zm.1,4.66l-.96-2.79h-.02l-.99,2.79h1.97Z"/><path class="b" d="m115.53,64.92c-.06.28-.19.55-.39.79-.2.24-.49.45-.86.62s-.88.26-1.51.26c-.27,0-.54-.03-.82-.1-.28-.07-.54-.17-.77-.31-.23-.14-.42-.32-.57-.55-.15-.22-.24-.49-.26-.8h1.5c.07.28.21.48.42.59.21.11.44.16.71.16.43,0,.74-.13.93-.38.2-.26.29-.58.28-.97v-.72h-.02c-.16.29-.4.51-.7.64-.3.14-.62.21-.95.21-.41,0-.77-.07-1.06-.22-.3-.15-.54-.34-.73-.6-.19-.25-.33-.55-.42-.88-.09-.34-.13-.69-.13-1.07,0-.35.05-.7.15-1.03.1-.33.25-.62.45-.87.2-.25.45-.45.74-.6.29-.15.63-.22,1.02-.22.36,0,.68.07.95.2.27.13.5.36.69.68h.02v-.73h1.44v5.15c0,.22-.03.47-.09.76Zm-2.07-1.83c.16-.09.3-.2.4-.34.11-.14.19-.3.24-.48.05-.18.08-.37.08-.57,0-.23-.02-.44-.06-.64-.04-.2-.11-.38-.21-.54-.1-.16-.23-.28-.39-.37-.16-.09-.37-.14-.62-.14-.21,0-.4.04-.55.13-.15.09-.28.2-.38.35-.1.15-.18.31-.22.5-.05.19-.07.38-.07.59s.02.4.06.59c.04.2.11.37.2.53.1.16.22.28.38.38.16.1.35.15.59.15.21,0,.4-.04.56-.13Z"/><path class="b" d="m118.39,63.19c.23.22.55.33.98.33.31,0,.57-.08.79-.23.22-.15.35-.31.4-.48h1.33c-.21.66-.54,1.13-.98,1.42-.44.28-.97.43-1.6.43-.43,0-.82-.07-1.17-.21-.35-.14-.64-.34-.88-.59-.24-.26-.43-.56-.56-.92-.13-.35-.2-.74-.2-1.17s.07-.79.2-1.15c.13-.35.33-.66.57-.92.25-.26.54-.46.89-.61.34-.15.73-.22,1.14-.22.47,0,.88.09,1.22.27.35.18.63.42.86.73.22.31.38.65.48,1.04s.13.8.11,1.22h-3.97c.02.49.15.84.37,1.06Zm1.71-2.89c-.18-.2-.46-.3-.82-.3-.24,0-.44.04-.6.12-.16.08-.29.18-.38.3-.1.12-.16.25-.2.38-.04.13-.06.26-.07.36h2.46c-.07-.38-.2-.67-.38-.87Z"/><path class="b" d="m124.28,59.01v.77h.03c.19-.32.44-.55.74-.7s.62-.22.94-.22c.4,0,.74.05.99.16.26.11.46.26.61.46.15.2.25.43.31.71.06.28.09.59.09.93v3.38h-1.51v-3.11c0-.45-.07-.79-.21-1.02-.14-.22-.39-.34-.76-.34-.41,0-.71.12-.89.37-.18.24-.28.65-.28,1.21v2.88h-1.51v-5.5h1.44Z"/><path class="b" d="m131.7,60c-.24,0-.44.05-.61.16-.16.11-.3.25-.4.43-.1.17-.18.37-.22.57-.04.21-.06.42-.06.62s.02.4.06.61c.04.21.11.39.21.56.1.17.23.3.39.41.16.11.36.16.6.16.36,0,.64-.1.84-.3.2-.2.32-.47.37-.81h1.46c-.1.73-.38,1.29-.85,1.67-.47.38-1.07.57-1.8.57-.41,0-.79-.07-1.13-.21-.34-.14-.64-.33-.88-.58-.24-.25-.43-.54-.56-.89s-.2-.72-.2-1.13.06-.82.19-1.19c.12-.37.31-.68.55-.95.24-.27.54-.47.88-.62.35-.15.74-.22,1.19-.22.33,0,.64.04.94.13.3.09.57.21.81.39.24.17.43.39.58.65.15.26.23.57.26.92h-1.48c-.1-.63-.47-.95-1.12-.95Z"/><path class="b" d="m135.17,58.16v-1.25h1.51v1.25h-1.51Zm1.51.85v5.5h-1.51v-5.5h1.51Z"/><path class="b" d="m137.77,60.7c.02-.35.11-.65.27-.88.16-.23.35-.42.6-.56.24-.14.51-.24.81-.3.3-.06.6-.09.91-.09.28,0,.56.02.84.06.28.04.54.12.78.23.23.11.43.27.57.47.15.2.22.47.22.8v2.86c0,.25.01.49.04.71.03.23.08.4.15.51h-1.53c-.03-.09-.05-.17-.07-.26-.02-.09-.03-.18-.04-.27-.24.25-.53.42-.85.52-.33.1-.66.15-1,.15-.26,0-.51-.03-.73-.1-.23-.06-.43-.16-.6-.3s-.3-.31-.4-.51-.14-.45-.14-.73c0-.31.05-.57.16-.77.11-.2.25-.36.43-.48.17-.12.37-.21.6-.27.22-.06.45-.11.68-.14.23-.04.45-.06.67-.09.22-.02.42-.05.59-.1.17-.04.3-.1.4-.19.1-.08.15-.2.14-.36,0-.16-.03-.29-.08-.39-.05-.1-.12-.17-.21-.22-.09-.05-.19-.09-.31-.11-.12-.02-.24-.03-.38-.03-.3,0-.53.06-.7.19-.17.13-.27.34-.3.64h-1.51Zm3.49,1.12c-.06.06-.14.1-.24.13-.1.03-.2.06-.31.08-.11.02-.23.04-.35.05-.12.01-.24.03-.36.05-.11.02-.23.05-.34.09s-.21.08-.29.14c-.08.06-.15.14-.2.23-.05.09-.07.21-.07.35s.02.25.07.34c.05.09.12.16.2.22.09.05.18.09.3.11.11.02.23.03.35.03.3,0,.53-.05.69-.15.16-.1.28-.22.36-.36.08-.14.13-.28.14-.42.02-.14.03-.26.03-.34v-.56Z"/><path class="b" d="m150.59,63.81c-.18.3-.41.51-.7.64-.29.13-.61.2-.97.2-.41,0-.77-.08-1.09-.24-.31-.16-.57-.38-.77-.65-.2-.27-.35-.59-.46-.94-.1-.35-.15-.72-.15-1.11s.05-.73.15-1.07c.1-.34.26-.65.46-.91.2-.26.46-.47.76-.63.3-.16.66-.24,1.06-.24.33,0,.64.07.93.21.29.14.53.34.7.61h.02v-2.77h1.51v7.6h-1.44v-.7h-.02Zm-.06-2.72c-.04-.21-.12-.39-.22-.55-.1-.16-.24-.29-.4-.39-.16-.1-.37-.15-.62-.15s-.46.05-.63.15-.31.23-.41.39c-.1.16-.18.35-.22.56-.05.21-.07.43-.07.65,0,.21.02.43.07.64.05.21.13.4.24.57.11.17.25.3.42.4.17.1.37.15.6.15.25,0,.46-.05.62-.15.17-.1.3-.23.4-.4s.17-.36.21-.57c.04-.21.06-.43.06-.66s-.02-.45-.06-.65Z"/><path class="b" d="m154.78,63.19c.23.22.55.33.98.33.31,0,.57-.08.79-.23.22-.15.35-.31.4-.48h1.33c-.21.66-.54,1.13-.98,1.42-.44.28-.97.43-1.6.43-.43,0-.82-.07-1.17-.21-.35-.14-.64-.34-.88-.59-.24-.26-.43-.56-.56-.92-.13-.35-.2-.74-.2-1.17s.07-.79.2-1.15c.13-.35.33-.66.57-.92.25-.26.54-.46.89-.61.34-.15.73-.22,1.14-.22.47,0,.88.09,1.22.27s.63.42.86.73c.22.31.38.65.48,1.04.1.39.13.8.11,1.22h-3.97c.02.49.15.84.37,1.06Zm1.71-2.89c-.18-.2-.46-.3-.82-.3-.24,0-.44.04-.6.12-.16.08-.29.18-.38.3-.1.12-.16.25-.2.38-.04.13-.06.26-.07.36h2.46c-.07-.38-.2-.67-.38-.87Z"/><path class="b" d="m163.57,56.92v7.6h-1.51v-7.6h1.51Z"/><path class="b" d="m164.66,60.7c.02-.35.11-.65.27-.88.16-.23.35-.42.6-.56.24-.14.51-.24.81-.3.3-.06.6-.09.91-.09.28,0,.56.02.84.06.28.04.54.12.78.23.23.11.43.27.57.47.15.2.22.47.22.8v2.86c0,.25.01.49.04.71.03.23.08.4.15.51h-1.53c-.03-.09-.05-.17-.07-.26-.02-.09-.03-.18-.04-.27-.24.25-.52.42-.85.52-.33.1-.66.15-1,.15-.26,0-.51-.03-.73-.1-.23-.06-.43-.16-.6-.3s-.3-.31-.4-.51c-.1-.21-.14-.45-.14-.73,0-.31.05-.57.16-.77.11-.2.25-.36.43-.48.17-.12.37-.21.6-.27.22-.06.45-.11.68-.14.23-.04.45-.06.67-.09.22-.02.42-.05.59-.1.17-.04.3-.1.4-.19.1-.08.15-.2.14-.36,0-.16-.03-.29-.08-.39-.05-.1-.12-.17-.21-.22-.09-.05-.19-.09-.31-.11-.12-.02-.24-.03-.38-.03-.3,0-.53.06-.7.19-.17.13-.27.34-.3.64h-1.51Zm3.49,1.12c-.06.06-.14.1-.24.13-.1.03-.2.06-.31.08-.11.02-.23.04-.35.05-.12.01-.24.03-.36.05-.11.02-.23.05-.34.09-.11.04-.21.08-.29.14-.08.06-.15.14-.2.23-.05.09-.07.21-.07.35s.02.25.07.34c.05.09.12.16.2.22.09.05.18.09.3.11.11.02.23.03.35.03.3,0,.53-.05.69-.15.16-.1.28-.22.36-.36.08-.14.13-.28.14-.42.02-.14.03-.26.03-.34v-.56Z"/><path class="b" d="m173.66,59.17c.17-.49.42-.91.73-1.27.32-.36.71-.65,1.18-.85.46-.21.99-.31,1.57-.31s1.11.1,1.57.31c.46.21.85.49,1.17.85.32.36.56.79.73,1.27.17.49.26,1.01.26,1.58s-.09,1.07-.26,1.55c-.17.48-.42.9-.73,1.25-.32.35-.71.63-1.17.84-.46.2-.99.3-1.57.3s-1.1-.1-1.57-.3c-.46-.2-.86-.48-1.18-.84-.32-.35-.56-.77-.73-1.25-.17-.48-.26-1-.26-1.55s.09-1.09.26-1.58Zm1.53,2.51c.07.3.19.57.36.81.16.24.38.43.64.58.26.15.58.22.96.22s.7-.07.96-.22c.26-.15.48-.34.64-.58.16-.24.28-.51.36-.81.07-.3.11-.61.11-.93s-.04-.66-.11-.97c-.07-.31-.19-.59-.36-.84-.16-.24-.38-.44-.64-.59-.26-.15-.58-.22-.96-.22s-.7.07-.96.22c-.26.15-.48.34-.64.59-.16.24-.28.52-.36.84-.07.31-.11.63-.11.97s.04.63.11.93Z"/><path class="b" d="m183.57,56.92l3.17,5.1h.02v-5.1h1.56v7.6h-1.67l-3.16-5.09h-.02v5.09h-1.56v-7.6h1.66Z"/><path class="b" d="m195.3,63.93c-.57.5-1.37.75-2.38.75s-1.83-.25-2.39-.74c-.56-.5-.85-1.26-.85-2.3v-4.72h1.67v4.72c0,.21.02.41.05.61.04.2.11.37.22.53.11.15.27.28.47.37.2.1.47.14.81.14.6,0,1.01-.13,1.23-.4.23-.27.34-.68.34-1.25v-4.72h1.67v4.72c0,1.03-.29,1.79-.86,2.29Z"/><path class="b" d="m201.62,59.01v.7h.02c.18-.3.42-.51.7-.65.28-.13.6-.2.94-.2.43,0,.81.08,1.12.24.31.16.57.38.78.65s.36.58.46.94c.1.36.15.73.15,1.12,0,.37-.05.72-.15,1.06s-.25.64-.45.9c-.2.26-.45.47-.76.63-.3.16-.65.23-1.06.23-.34,0-.65-.07-.94-.21-.29-.14-.52-.34-.71-.61h-.02v2.61h-1.51v-7.43h1.44Zm1.96,4.36c.17-.1.3-.23.4-.39.1-.16.18-.35.22-.56.04-.21.06-.43.06-.65s-.02-.44-.07-.65c-.05-.21-.12-.4-.23-.57-.11-.17-.24-.3-.41-.4-.17-.1-.37-.15-.61-.15s-.46.05-.62.15c-.17.1-.3.24-.4.4-.1.16-.18.35-.22.56-.04.21-.06.43-.06.66s.02.44.07.65c.05.21.12.4.22.56.1.16.24.29.41.39s.38.15.62.15.46-.05.62-.15Z"/><path class="b" d="m206.56,60.7c.02-.35.11-.65.27-.88.16-.23.35-.42.6-.56.24-.14.51-.24.81-.3.3-.06.6-.09.91-.09.28,0,.56.02.84.06.28.04.54.12.78.23.23.11.43.27.57.47.15.2.22.47.22.8v2.86c0,.25.01.49.04.71.03.23.08.4.15.51h-1.53c-.03-.09-.05-.17-.07-.26-.02-.09-.03-.18-.04-.27-.24.25-.53.42-.85.52-.33.1-.66.15-1,.15-.26,0-.51-.03-.73-.1-.23-.06-.43-.16-.6-.3s-.3-.31-.4-.51c-.1-.21-.14-.45-.14-.73,0-.31.05-.57.16-.77.11-.2.25-.36.43-.48.17-.12.37-.21.6-.27.22-.06.45-.11.68-.14.23-.04.45-.06.67-.09.22-.02.42-.05.59-.1.17-.04.3-.1.4-.19.1-.08.15-.2.14-.36,0-.16-.03-.29-.08-.39-.05-.1-.12-.17-.21-.22-.09-.05-.19-.09-.31-.11-.12-.02-.24-.03-.38-.03-.3,0-.53.06-.7.19-.17.13-.27.34-.3.64h-1.51Zm3.49,1.12c-.06.06-.14.1-.24.13-.1.03-.2.06-.31.08-.11.02-.23.04-.35.05-.12.01-.24.03-.36.05-.11.02-.23.05-.34.09s-.21.08-.29.14c-.08.06-.15.14-.2.23-.05.09-.07.21-.07.35s.02.25.07.34c.05.09.12.16.2.22.09.05.18.09.3.11.11.02.23.03.35.03.3,0,.53-.05.69-.15.16-.1.28-.22.36-.36.08-.14.13-.28.14-.42.02-.14.03-.26.03-.34v-.56Z"/><path class="b" d="m214.14,59.01v1.02h.02c.07-.17.17-.33.29-.47.12-.15.26-.27.42-.37.16-.1.32-.18.5-.24.18-.06.36-.09.55-.09.1,0,.21.02.33.05v1.4c-.07-.01-.16-.03-.26-.04-.1-.01-.2-.02-.29-.02-.28,0-.51.05-.7.14-.19.09-.35.22-.46.38-.12.16-.2.35-.25.56-.05.21-.07.44-.07.69v2.48h-1.51v-5.5h1.44Z"/><path class="b" d="m216.8,60.7c.02-.35.11-.65.27-.88.16-.23.35-.42.6-.56.24-.14.51-.24.81-.3.3-.06.6-.09.91-.09.28,0,.56.02.84.06.28.04.54.12.78.23.23.11.43.27.57.47.15.2.22.47.22.8v2.86c0,.25.01.49.04.71.03.23.08.4.15.51h-1.53c-.03-.09-.05-.17-.07-.26-.02-.09-.03-.18-.04-.27-.24.25-.53.42-.85.52-.33.1-.66.15-1,.15-.26,0-.51-.03-.73-.1-.23-.06-.43-.16-.6-.3s-.3-.31-.4-.51-.14-.45-.14-.73c0-.31.05-.57.16-.77.11-.2.25-.36.43-.48.17-.12.37-.21.6-.27.22-.06.45-.11.68-.14.23-.04.45-.06.67-.09.22-.02.42-.05.59-.1.17-.04.3-.1.4-.19.1-.08.15-.2.14-.36,0-.16-.03-.29-.08-.39-.05-.1-.12-.17-.21-.22-.09-.05-.19-.09-.31-.11-.12-.02-.24-.03-.38-.03-.3,0-.53.06-.7.19-.17.13-.27.34-.3.64h-1.51Zm3.49,1.12c-.06.06-.14.1-.24.13-.1.03-.2.06-.31.08-.11.02-.23.04-.35.05-.12.01-.24.03-.36.05-.11.02-.23.05-.34.09s-.21.08-.29.14c-.08.06-.15.14-.2.23-.05.09-.07.21-.07.35s.02.25.07.34c.05.09.12.16.2.22.09.05.18.09.3.11.11.02.23.03.35.03.3,0,.53-.05.69-.15.16-.1.28-.22.36-.36.08-.14.13-.28.14-.42.02-.14.03-.26.03-.34v-.56Z"/><path class="b" d="m227.27,56.92v7.6h-1.51v-7.6h1.51Z"/><path class="b" d="m228.41,60.57c.13-.36.33-.66.57-.92.25-.25.55-.45.89-.59.35-.14.74-.21,1.17-.21s.82.07,1.18.21c.35.14.65.33.9.59.25.25.44.56.57.92.13.36.2.76.2,1.2s-.07.84-.2,1.19c-.13.35-.33.66-.57.91-.25.25-.55.45-.9.58-.35.13-.74.2-1.18.2s-.82-.07-1.17-.2c-.35-.13-.65-.33-.89-.58-.25-.25-.44-.56-.57-.91-.13-.35-.2-.75-.2-1.19s.07-.84.2-1.2Zm1.37,1.84c.04.21.12.4.22.56.1.17.24.3.41.4.17.1.38.15.64.15s.47-.05.64-.15c.17-.1.31-.23.42-.4.1-.17.18-.35.22-.56.04-.21.06-.42.06-.64s-.02-.44-.06-.65c-.04-.21-.12-.4-.22-.56-.1-.16-.24-.3-.42-.4-.17-.1-.39-.15-.64-.15s-.47.05-.64.15c-.17.1-.31.24-.41.4-.1.16-.18.35-.22.56-.04.21-.06.43-.06.65s.02.43.06.64Z"/><path class="b" d="m236.04,63.15c.07.12.15.21.26.29.11.07.23.13.37.16.14.04.28.05.43.05.11,0,.22-.01.34-.04.12-.02.22-.06.32-.12.1-.05.18-.12.24-.21.06-.09.1-.2.1-.34,0-.23-.15-.4-.45-.51-.3-.11-.72-.23-1.26-.34-.22-.05-.43-.11-.64-.18-.21-.07-.4-.16-.56-.27-.16-.11-.29-.25-.39-.42-.1-.17-.15-.37-.15-.61,0-.35.07-.65.21-.87.14-.23.32-.41.55-.54.23-.13.48-.22.77-.28.28-.05.57-.08.87-.08s.59.03.87.09c.28.06.53.15.75.29.22.13.4.31.55.54.15.22.23.51.26.85h-1.44c-.02-.29-.13-.49-.33-.59-.2-.1-.43-.15-.7-.15-.09,0-.18,0-.28.02s-.19.03-.27.07c-.08.04-.15.09-.21.15-.06.07-.09.16-.09.27,0,.13.05.24.15.33.1.09.23.15.39.21.16.05.34.1.55.14.21.04.42.09.63.14.22.05.43.11.64.18.21.07.4.16.56.28.16.12.29.26.39.44.1.17.15.39.15.64,0,.36-.07.67-.22.91-.15.24-.34.44-.57.59-.23.15-.5.25-.8.31-.3.06-.61.09-.92.09s-.63-.03-.94-.1c-.31-.06-.58-.17-.81-.32-.24-.15-.43-.35-.59-.59-.15-.24-.24-.55-.25-.92h1.44c0,.16.03.3.1.42Z"/><path class="b" d="m247.49,56.92c.34,0,.65.05.92.16.27.11.51.26.7.45.2.19.34.41.45.67.1.25.15.52.15.81,0,.45-.09.83-.28,1.16-.19.33-.49.57-.92.74v.02c.21.06.38.14.51.26.13.12.24.26.33.42.09.16.15.34.19.53.04.19.07.38.08.57,0,.12.01.26.02.43,0,.16.02.33.04.5.02.17.05.33.09.48.04.15.1.28.18.39h-1.67c-.09-.24-.15-.53-.17-.86-.02-.33-.05-.65-.1-.96-.06-.4-.18-.69-.36-.87-.18-.18-.49-.28-.9-.28h-1.67v2.97h-1.67v-7.6h4.1Zm-.6,3.44c.38,0,.67-.09.86-.26.19-.17.29-.45.29-.83s-.1-.64-.29-.8c-.19-.17-.48-.25-.86-.25h-1.83v2.14h1.83Z"/><path class="b" d="m252.39,63.19c.23.22.55.33.98.33.31,0,.57-.08.79-.23.22-.15.35-.31.4-.48h1.33c-.21.66-.54,1.13-.98,1.42-.44.28-.97.43-1.6.43-.43,0-.82-.07-1.17-.21-.35-.14-.64-.34-.88-.59-.24-.26-.43-.56-.56-.92-.13-.35-.2-.74-.2-1.17s.07-.79.2-1.15c.13-.35.33-.66.57-.92.25-.26.54-.46.89-.61.34-.15.73-.22,1.14-.22.47,0,.88.09,1.22.27s.63.42.86.73c.22.31.38.65.48,1.04s.13.8.11,1.22h-3.97c.02.49.15.84.37,1.06Zm1.71-2.89c-.18-.2-.46-.3-.82-.3-.24,0-.44.04-.6.12-.16.08-.29.18-.38.3-.1.12-.16.25-.2.38-.04.13-.06.26-.07.36h2.46c-.07-.38-.2-.67-.38-.87Z"/><path class="b" d="m256.23,60.02v-1.01h.9v-.43c0-.49.15-.89.46-1.2.31-.31.77-.47,1.38-.47.13,0,.27,0,.4.02.13.01.27.02.39.03v1.13c-.18-.02-.36-.03-.55-.03-.21,0-.35.05-.44.14-.09.1-.13.26-.13.48v.33h1.04v1.01h-1.04v4.49h-1.51v-4.49h-.9Z"/><path class="b" d="m264.04,64.51v-.77h-.03c-.19.32-.44.55-.74.69-.31.14-.62.21-.94.21-.4,0-.74-.05-1-.16-.26-.11-.46-.26-.61-.45-.15-.2-.25-.43-.31-.71-.06-.28-.09-.59-.09-.93v-3.38h1.51v3.11c0,.45.07.79.21,1.02.14.22.39.34.76.34.41,0,.71-.12.89-.37.18-.24.28-.65.28-1.21v-2.88h1.51v5.5h-1.44Z"/><path class="b" d="m271.77,64.92c-.06.28-.19.55-.39.79-.2.24-.49.45-.86.62s-.88.26-1.51.26c-.27,0-.54-.03-.82-.1-.28-.07-.54-.17-.77-.31-.23-.14-.42-.32-.57-.55-.15-.22-.24-.49-.26-.8h1.5c.07.28.21.48.42.59.21.11.44.16.71.16.43,0,.74-.13.93-.38.2-.26.29-.58.28-.97v-.72h-.02c-.16.29-.4.51-.7.64-.3.14-.62.21-.95.21-.41,0-.77-.07-1.06-.22-.3-.15-.54-.34-.73-.6-.19-.25-.33-.55-.42-.88-.09-.34-.13-.69-.13-1.07,0-.35.05-.7.15-1.03.1-.33.25-.62.45-.87.2-.25.45-.45.74-.6.29-.15.63-.22,1.02-.22.36,0,.68.07.95.2.27.13.5.36.69.68h.02v-.73h1.44v5.15c0,.22-.03.47-.09.76Zm-2.07-1.83c.16-.09.3-.2.4-.34.11-.14.19-.3.24-.48.05-.18.08-.37.08-.57,0-.23-.02-.44-.06-.64-.04-.2-.11-.38-.21-.54-.1-.16-.23-.28-.39-.37-.16-.09-.37-.14-.62-.14-.21,0-.4.04-.55.13-.15.09-.28.2-.38.35-.1.15-.18.31-.22.5-.05.19-.07.38-.07.59s.02.4.06.59c.04.2.11.37.2.53.1.16.22.28.38.38.16.1.35.15.59.15.21,0,.4-.04.56-.13Z"/><path class="b" d="m273.04,58.16v-1.25h1.51v1.25h-1.51Zm1.51.85v5.5h-1.51v-5.5h1.51Z"/><path class="b" d="m275.64,60.7c.02-.35.11-.65.27-.88.16-.23.35-.42.6-.56.24-.14.51-.24.81-.3.3-.06.6-.09.91-.09.28,0,.56.02.84.06.28.04.54.12.78.23.23.11.43.27.57.47.15.2.22.47.22.8v2.86c0,.25.01.49.04.71.03.23.08.4.15.51h-1.53c-.03-.09-.05-.17-.07-.26-.02-.09-.03-.18-.04-.27-.24.25-.53.42-.85.52-.33.1-.66.15-1,.15-.26,0-.51-.03-.73-.1-.23-.06-.43-.16-.6-.3s-.3-.31-.4-.51-.14-.45-.14-.73c0-.31.05-.57.16-.77.11-.2.25-.36.43-.48.17-.12.37-.21.6-.27.22-.06.45-.11.68-.14.23-.04.45-.06.67-.09.22-.02.41-.05.59-.1.17-.04.3-.1.4-.19.1-.08.15-.2.14-.36,0-.16-.03-.29-.08-.39-.05-.1-.12-.17-.21-.22-.09-.05-.19-.09-.31-.11-.12-.02-.24-.03-.38-.03-.3,0-.53.06-.7.19-.17.13-.27.34-.3.64h-1.51Zm3.49,1.12c-.06.06-.14.1-.24.13-.1.03-.2.06-.31.08-.11.02-.23.04-.35.05-.12.01-.24.03-.36.05-.11.02-.23.05-.34.09-.11.04-.21.08-.29.14-.08.06-.15.14-.2.23-.05.09-.07.21-.07.35s.02.25.07.34c.05.09.12.16.2.22.09.05.18.09.3.11.11.02.23.03.35.03.3,0,.53-.05.69-.15.16-.1.28-.22.36-.36.08-.14.13-.28.14-.42.02-.14.03-.26.03-.34v-.56Z"/><path class="b" d="m285.63,63.81c-.18.3-.41.51-.7.64-.29.13-.61.2-.97.2-.41,0-.77-.08-1.09-.24-.31-.16-.57-.38-.77-.65-.2-.27-.35-.59-.46-.94-.1-.35-.15-.72-.15-1.11s.05-.73.15-1.07c.1-.34.26-.65.46-.91.2-.26.46-.47.76-.63.3-.16.66-.24,1.06-.24.33,0,.64.07.93.21.29.14.53.34.7.61h.02v-2.77h1.51v7.6h-1.44v-.7h-.02Zm-.06-2.72c-.04-.21-.12-.39-.22-.55-.1-.16-.24-.29-.4-.39-.16-.1-.37-.15-.62-.15s-.46.05-.63.15-.31.23-.41.39c-.1.16-.18.35-.22.56-.05.21-.07.43-.07.65,0,.21.02.43.07.64.05.21.13.4.24.57.11.17.25.3.42.4.17.1.37.15.6.15.25,0,.46-.05.62-.15.17-.1.3-.23.4-.4s.17-.36.21-.57c.04-.21.06-.43.06-.66s-.02-.45-.06-.65Z"/><path class="b" d="m288.19,60.57c.13-.36.33-.66.57-.92.25-.25.55-.45.89-.59.35-.14.74-.21,1.17-.21s.82.07,1.18.21c.35.14.65.33.9.59.25.25.44.56.57.92.13.36.2.76.2,1.2s-.07.84-.2,1.19c-.13.35-.33.66-.57.91-.25.25-.55.45-.9.58-.35.13-.74.2-1.18.2s-.82-.07-1.17-.2c-.35-.13-.65-.33-.89-.58-.25-.25-.44-.56-.57-.91-.13-.35-.2-.75-.2-1.19s.07-.84.2-1.2Zm1.37,1.84c.04.21.12.4.22.56.1.17.24.3.41.4s.38.15.64.15.47-.05.64-.15c.17-.1.31-.23.42-.4.1-.17.18-.35.22-.56.04-.21.06-.42.06-.64s-.02-.44-.06-.65c-.04-.21-.12-.4-.22-.56-.1-.16-.24-.3-.42-.4-.17-.1-.39-.15-.64-.15s-.47.05-.64.15c-.17.1-.31.24-.41.4-.1.16-.18.35-.22.56-.04.21-.06.43-.06.65s.02.43.06.64Z"/><path class="b" d="m295.82,63.15c.07.12.15.21.26.29.11.07.23.13.37.16.14.04.28.05.43.05.11,0,.22-.01.34-.04.12-.02.22-.06.32-.12.1-.05.18-.12.24-.21.06-.09.1-.2.1-.34,0-.23-.15-.4-.45-.51-.3-.11-.72-.23-1.26-.34-.22-.05-.43-.11-.64-.18-.21-.07-.4-.16-.56-.27-.16-.11-.29-.25-.39-.42-.1-.17-.15-.37-.15-.61,0-.35.07-.65.21-.87.14-.23.32-.41.55-.54.23-.13.48-.22.77-.28.28-.05.57-.08.87-.08s.59.03.87.09c.28.06.53.15.75.29.22.13.4.31.55.54.15.22.23.51.26.85h-1.44c-.02-.29-.13-.49-.33-.59-.2-.1-.43-.15-.7-.15-.09,0-.18,0-.28.02-.1.01-.19.03-.27.07-.08.04-.15.09-.21.15-.06.07-.09.16-.09.27,0,.13.05.24.15.33.1.09.23.15.39.21s.34.1.55.14c.21.04.41.09.63.14.22.05.43.11.64.18.21.07.4.16.56.28.16.12.29.26.39.44.1.17.15.39.15.64,0,.36-.07.67-.22.91s-.34.44-.57.59c-.23.15-.5.25-.8.31-.3.06-.61.09-.92.09s-.63-.03-.94-.1c-.31-.06-.58-.17-.81-.32-.24-.15-.43-.35-.59-.59-.15-.24-.24-.55-.25-.92h1.44c0,.16.03.3.1.42Z"/></g><g xmlns="http://www.w3.org/2000/svg"><path class="b" d="m109.04,17.46c0,6.36-3.43,9.41-10.43,9.41s-10.47-3.05-10.47-9.41V3.4h7.06v12.49c0,2.34,0,5.27,3.44,5.27s3.34-2.92,3.34-5.27V3.4h7.06v14.06"/><polygon class="b" points="112.5 3.4 119.72 3.4 126.4 15.66 126.47 15.66 126.47 3.4 133.14 3.4 133.14 26.32 126.27 26.32 119.24 13.8 119.18 13.8 119.18 26.32 112.5 26.32 112.5 3.4"/><polygon class="b" points="136.77 30.19 144 30.19 150.68 42.46 150.74 42.46 150.74 30.19 157.42 30.19 157.42 53.12 150.55 53.12 143.52 40.6 143.45 40.6 143.45 53.12 136.77 53.12 136.77 30.19"/><polygon class="b" points="136.72 3.4 143.79 3.4 143.79 11.36 150.4 11.36 150.4 3.4 157.47 3.4 157.47 26.32 150.4 26.32 150.4 17.23 143.79 17.23 143.79 26.32 136.72 26.32 136.72 3.4"/><path class="b" d="m175.55,11.94c-.13-.84-.77-3.37-3.69-3.37-3.31,0-4.37,3.21-4.37,6.29s1.06,6.29,4.37,6.29c2.38,0,3.31-1.67,3.73-3.82h6.93c0,4.62-3.76,9.54-10.47,9.54-7.42,0-11.62-5.23-11.62-12.01,0-7.22,4.56-12.01,11.62-12.01,6.29.03,9.76,3.34,10.37,9.09h-6.87"/><path class="b" d="m126.33,38.73c-.13-.84-.77-3.37-3.69-3.37-3.31,0-4.37,3.21-4.37,6.29s1.06,6.29,4.37,6.29c2.38,0,3.31-1.67,3.73-3.82h6.93c0,4.62-3.76,9.54-10.47,9.54-7.42,0-11.62-5.23-11.62-12.01,0-7.22,4.56-12.01,11.62-12.01,6.29.03,9.76,3.34,10.37,9.09h-6.87"/><path class="b" d="m192.5,8.85h3.31c2.7,0,3.5.83,3.5,2.28,0,2.05-1.8,2.28-3.11,2.28h-3.69v-4.56Zm-7.06,17.47h7.06v-7.99h3.76c2.79,0,2.98,2.28,3.18,4.46.09,1.19.22,2.38.58,3.53h7.06c-.64-1.06-.67-3.79-.77-4.91-.26-2.86-1.44-4.98-3.37-5.72,2.34-.87,3.44-3.37,3.44-5.75,0-4.34-3.47-6.55-7.48-6.55h-13.45v22.92"/><path class="b" d="m192.5,35.65h3.31c2.7,0,3.5.83,3.5,2.28,0,2.05-1.8,2.28-3.11,2.28h-3.69v-4.56Zm-7.06,17.47h7.06v-7.99h3.76c2.79,0,2.98,2.28,3.18,4.46.09,1.19.22,2.38.58,3.53h7.06c-.64-1.06-.67-3.79-.77-4.91-.26-2.86-1.44-4.98-3.37-5.72,2.34-.87,3.44-3.37,3.44-5.75,0-4.34-3.47-6.55-7.48-6.55h-13.45v22.92"/><path class="b" d="m98.61,37.86h.06l2.07,7.07h-4.34l2.21-7.07Zm-3.43-7.67l-8.44,22.92h7.09l1.03-3.28h7.29l.96,3.28h7.32l-8.34-22.92h-6.92Z"/><path class="b" d="m181.92,44.26c0,6.36-3.43,9.41-10.43,9.41s-10.47-3.05-10.47-9.41v-14.06h7.06v12.49c0,2.34,0,5.27,3.44,5.27s3.34-2.92,3.34-5.27v-12.49h7.06v14.06"/></g></svg>